<svg width="40" height="40" viewBox="0 0 40 40" fill="none" xmlns="http://www.w3.org/2000/svg">
<g clip-path="url(#clip0_2437_10084)">
<path d="M17.433 26.165C19.433 26.165 21.0497 24.5483 21.0497 22.5483C21.0497 20.5483 19.433 18.9316 17.433 18.9316C15.433 18.9316 13.8164 20.5483 13.8164 22.5483C13.8164 24.5483 15.433 26.165 17.433 26.165Z" stroke="#00664E" stroke-width="2.5" stroke-miterlimit="10" stroke-linecap="round"/>
<path d="M34.2665 14.3157L31.2831 17.2991C30.8165 17.7991 30.4998 18.4324 30.3665 19.099L28.5665 29.4491C28.4165 30.1824 28.0498 30.8324 27.4998 31.3657C26.9831 31.8824 26.2998 32.249 25.5832 32.3824L9.18316 34.899C8.61649 35.0324 8.03316 35.0324 7.46649 34.8657C6.91649 34.7157 6.38314 34.4157 5.98314 33.999C5.56647 33.5824 5.26647 33.0657 5.0998 32.5157C4.9498 31.9491 4.9498 31.3657 5.0998 30.7991L7.61649 14.4157C7.76649 13.6824 8.11648 13.0157 8.64981 12.4824C9.16648 11.949 9.83312 11.5824 10.5498 11.4157L20.8998 9.63237C21.5665 9.48237 22.1831 9.16573 22.6831 8.71573L25.6831 5.7157C26.3498 5.18236 27.1832 4.93239 28.0332 5.01573C28.8832 5.09906 29.6498 5.49905 30.1998 6.14905L33.8498 9.79905C34.4998 10.3491 34.9165 11.1157 34.9831 11.9657C35.0831 12.8157 34.8165 13.649 34.2832 14.3157H34.2665Z" stroke="#00664E" stroke-width="2.5" stroke-miterlimit="10" stroke-linecap="round"/>
<path d="M21.9336 9.44922L30.5336 18.0492" stroke="#00664E" stroke-width="2.5" stroke-miterlimit="10" stroke-linecap="round"/>
<path d="M14.8833 25.1152L6 34.0152" stroke="#00664E" stroke-width="2.5" stroke-miterlimit="10" stroke-linecap="round"/>
</g>
<defs>
<clipPath id="clip0_2437_10084">
<rect width="40" height="40" fill="white"/>
</clipPath>
</defs>
</svg>
