<svg width="40" height="28" viewBox="0 0 40 28" fill="none" xmlns="http://www.w3.org/2000/svg">
<path d="M39.932 14.0503C39.8541 13.7809 39.6869 13.3157 39.3277 12.4318C38.9705 11.5528 38.3804 10.1987 37.5977 8.7398C35.5368 4.89808 33.2426 2.29324 30.7791 0.998001C28.0019 -0.462155 25.0338 -0.201921 22.1954 1.75097C22.0945 1.82042 21.9994 1.88628 21.9094 1.94855C20.8626 2.67339 20.7998 2.71683 20 2.71683C19.2002 2.71683 19.1375 2.67347 18.0907 1.94863C18.0006 1.88628 17.9055 1.82042 17.8045 1.75097C14.9663 -0.201842 11.9983 -0.462155 9.22094 0.998001C6.75734 2.29339 4.4632 4.89808 2.40227 8.73996C1.61969 10.1989 1.02945 11.5529 0.672266 12.432C0.340937 13.2472 0.173125 13.7059 0.0878906 13.9837C0.0340625 14.1234 0 14.2889 0 14.4561C0 14.5668 0.0214844 14.7253 0.0605469 14.849C0.181875 15.2604 1.185 18.428 4.1368 21.59C5.86742 23.4439 7.92461 24.9189 10.2511 25.9741C13.1188 27.2748 16.3988 27.9343 20.0001 27.9343C23.6028 27.9343 26.8839 27.2743 29.7523 25.9726C32.0791 24.9167 34.1364 23.4408 35.867 21.5859C38.8159 18.4252 39.8164 15.2667 39.9394 14.8494C39.9743 14.7392 40.0001 14.5913 40.0001 14.4561C40 14.2964 39.9605 14.1373 39.932 14.0503ZM20 25.3256C9.32789 25.3256 4.84305 18.9774 3.27836 15.8385C3.8925 15.8398 4.64148 15.8359 5.51547 15.8264C7.45109 15.8055 9.39094 15.7643 9.57906 15.7603C11.5927 15.7628 13.6812 16.3301 15.787 17.4463C17.073 18.1278 18.5271 18.4879 19.9933 18.4879C19.9978 18.4879 20.0023 18.4879 20.0069 18.4879C21.4729 18.4879 22.9273 18.1278 24.2131 17.4463C26.319 16.3301 28.4075 15.7628 30.4211 15.7603C30.6091 15.7643 32.549 15.8055 34.4846 15.8264C35.3588 15.8357 36.1087 15.8397 36.7216 15.8385C35.1567 18.9774 30.6716 25.3256 20 25.3256ZM12.7565 13.5239C14.6533 12.1449 16.2845 11.3853 17.3505 11.3853C18.178 11.3853 18.7054 11.796 18.8956 11.9744C18.9336 12.0318 18.9766 12.0868 19.0245 12.1388C19.46 12.6116 20.1753 12.6964 20.7095 12.3386C20.8228 12.2627 20.9227 12.1706 21.0064 12.0662C21.1087 11.9554 21.6819 11.3854 22.6495 11.3854C23.7155 11.3854 25.3466 12.145 27.2434 13.524C25.8302 13.8503 24.4086 14.3902 22.9912 15.1415C22.0803 15.6243 21.0485 15.8794 20.0068 15.8794C20.005 15.8794 20.003 15.8794 20.0011 15.8794C19.9984 15.8793 19.9957 15.8794 19.9931 15.8794C18.9515 15.8794 17.9195 15.6243 17.0087 15.1415C15.5914 14.3902 14.1698 13.8503 12.7565 13.5239ZM34.5439 13.2186C34.4148 13.1758 34.2771 13.1518 34.1337 13.1518C32.1914 13.1518 30.3439 12.5542 28.7909 11.4236C26.3784 9.6673 24.3121 8.77675 22.6495 8.77675C21.5008 8.77675 20.6124 9.15144 19.9945 9.54706C19.3805 9.15417 18.4931 8.77675 17.3505 8.77675C15.688 8.77675 13.6216 9.6673 11.2091 11.4236C9.65609 12.5541 7.80875 13.1516 5.86633 13.1516C5.72289 13.1516 5.58508 13.1757 5.45602 13.2185C4.59273 13.2274 3.80539 13.2315 3.16492 13.2295C3.58945 12.2005 4.2275 10.7887 5.06133 9.32003C7.02383 5.86339 9.17781 3.65589 11.2907 2.9362C12.9264 2.37902 14.5734 2.69417 16.3259 3.90003C16.4246 3.96792 16.5177 4.03238 16.6057 4.09331C17.7905 4.91363 18.3852 5.32542 20.0001 5.32542C21.6149 5.32542 22.2096 4.91363 23.3945 4.09324C23.4827 4.0323 23.5755 3.96792 23.6743 3.90003C25.4266 2.69433 27.0736 2.37878 28.7095 2.9362C30.8223 3.65589 32.9763 5.86339 34.9388 9.32011C35.7726 10.7888 36.4107 12.2007 36.8352 13.2296C36.1945 13.2316 35.4073 13.2275 34.5439 13.2186Z" fill="#00664E"/>
</svg>
