<svg width="38" height="40" viewBox="0 0 38 40" fill="none" xmlns="http://www.w3.org/2000/svg">
<path d="M20.8463 0C18.2814 0 15.8154 0.552577 13.5143 1.64124C10.5948 3.00206 8.12053 5.14639 6.35558 7.85155C4.54939 10.6309 3.59269 13.8557 3.59269 17.1876V19.5794L0.450424 25.5835C-0.126895 26.6887 -0.151638 27.8268 0.376197 28.701C0.904032 29.5753 1.92671 30.0784 3.17207 30.0784H3.59269V34.9031C3.59269 37.3773 5.60506 39.3897 8.07929 39.3897C8.13702 39.3897 8.203 39.3814 8.26073 39.3732L22.3226 37.0309C24.5494 36.7258 26.2154 34.8041 26.2071 32.5608V24.3381C29.5143 23.8021 32.0545 20.9237 32.0545 17.4598C32.0545 13.6165 28.9288 10.4907 25.0855 10.4907C21.2422 10.4907 18.1164 13.6165 18.1164 17.4598C18.1164 20.932 20.6649 23.8103 23.9886 24.3464V32.5773C23.9968 33.7155 23.1473 34.6887 22.0257 34.8371C22.0092 34.8371 22.0009 34.8371 21.9844 34.8454L7.99682 37.1546C6.79269 37.1134 5.8195 36.1155 5.8195 34.8948V28.9567C5.8195 28.3381 5.32465 27.8433 4.70609 27.8433H3.16383C2.72671 27.8433 2.38857 27.7278 2.2731 27.5381C2.15764 27.3485 2.21537 26.9938 2.41331 26.6062L5.68754 20.3629C5.77001 20.2062 5.81125 20.0247 5.81125 19.8433V17.1794C5.81125 11.3979 9.20094 6.0866 14.4463 3.65361H14.4545C16.4587 2.70515 18.603 2.2268 20.8381 2.2268C29.0772 2.2268 35.7741 8.93196 35.7741 17.1629C35.7741 21.3361 34.0092 25.3443 30.9329 28.1732C30.702 28.3876 30.57 28.6845 30.57 28.9897V34.1196V38.8866C30.57 39.5052 31.0649 40 31.6834 40C32.302 40 32.7968 39.5052 32.7968 38.8866V34.1196V29.4763C34.3638 27.9588 35.6092 26.1856 36.4999 24.1897C37.4978 21.9711 38.0009 19.6124 38.0009 17.1629C38.0092 7.70309 30.3061 0 20.8463 0Z" fill="#51BCAB"/>
<path d="M20.8463 0C18.2814 0 15.8154 0.552577 13.5143 1.64124C10.5948 3.00206 8.12053 5.14639 6.35558 7.85155C4.54939 10.6309 3.59269 13.8557 3.59269 17.1876V19.5794L0.450424 25.5835C-0.126895 26.6887 -0.151638 27.8268 0.376197 28.701C0.904032 29.5753 1.92671 30.0784 3.17207 30.0784H3.59269V34.9031C3.59269 37.3773 5.60506 39.3897 8.07929 39.3897C8.13702 39.3897 8.203 39.3814 8.26073 39.3732L22.3226 37.0309C24.5494 36.7258 26.2154 34.8041 26.2071 32.5608V24.3381C29.5143 23.8021 32.0545 20.9237 32.0545 17.4598C32.0545 13.6165 28.9288 10.4907 25.0855 10.4907C21.2422 10.4907 18.1164 13.6165 18.1164 17.4598C18.1164 20.932 20.6649 23.8103 23.9886 24.3464V32.5773C23.9968 33.7155 23.1473 34.6887 22.0257 34.8371C22.0092 34.8371 22.0009 34.8371 21.9844 34.8454L7.99682 37.1546C6.79269 37.1134 5.8195 36.1155 5.8195 34.8948V28.9567C5.8195 28.3381 5.32465 27.8433 4.70609 27.8433H3.16383C2.72671 27.8433 2.38857 27.7278 2.2731 27.5381C2.15764 27.3485 2.21537 26.9938 2.41331 26.6062L5.68754 20.3629C5.77001 20.2062 5.81125 20.0247 5.81125 19.8433V17.1794C5.81125 11.3979 9.20094 6.0866 14.4463 3.65361H14.4545C16.4587 2.70515 18.603 2.2268 20.8381 2.2268C29.0772 2.2268 35.7741 8.93196 35.7741 17.1629C35.7741 21.3361 34.0092 25.3443 30.9329 28.1732C30.702 28.3876 30.57 28.6845 30.57 28.9897V34.1196V38.8866C30.57 39.5052 31.0649 40 31.6834 40C32.302 40 32.7968 39.5052 32.7968 38.8866V34.1196V29.4763C34.3638 27.9588 35.6092 26.1856 36.4999 24.1897C37.4978 21.9711 38.0009 19.6124 38.0009 17.1629C38.0092 7.70309 30.3061 0 20.8463 0Z" fill="#51BCAB"/>
</svg>
