<svg width="24" height="24" viewBox="0 0 24 24" fill="none" xmlns="http://www.w3.org/2000/svg">
<rect width="24" height="24" rx="5" fill="black"/>
<path d="M18.6791 15.2135L16.5924 10.3335C16.2124 9.44018 15.6458 8.93351 14.9991 8.90018C14.3591 8.86684 13.7391 9.31351 13.2658 10.1668L11.9991 12.4402C11.7324 12.9202 11.3524 13.2068 10.9391 13.2402C10.5191 13.2802 10.0991 13.0602 9.75912 12.6268L9.61245 12.4402C9.13912 11.8468 8.55245 11.5602 7.95245 11.6202C7.35245 11.6802 6.83912 12.0935 6.49912 12.7668L5.34578 15.0668C4.93245 15.9002 4.97245 16.8668 5.45912 17.6535C5.94578 18.4402 6.79245 18.9135 7.71911 18.9135H16.2258C17.1191 18.9135 17.9524 18.4668 18.4458 17.7202C18.9524 16.9735 19.0324 16.0335 18.6791 15.2135Z" fill="white"/>
<path d="M8.64591 9.58675C9.89039 9.58675 10.8992 8.57789 10.8992 7.33341C10.8992 6.08893 9.89039 5.08008 8.64591 5.08008C7.40143 5.08008 6.39258 6.08893 6.39258 7.33341C6.39258 8.57789 7.40143 9.58675 8.64591 9.58675Z" fill="white"/>
</svg>
