<svg width="40" height="40" viewBox="0 0 40 40" fill="none" xmlns="http://www.w3.org/2000/svg">
<g clip-path="url(#clip0_2437_10068)">
<path d="M39.932 20.0503C39.8541 19.7809 39.6869 19.3157 39.3277 18.4318C38.9705 17.5528 38.3804 16.1987 37.5977 14.7398C35.5368 10.8981 33.2426 8.29324 30.7791 6.998C28.0019 5.53784 25.0338 5.79808 22.1954 7.75097C22.0945 7.82042 21.9994 7.88628 21.9094 7.94855C20.8626 8.67339 20.7998 8.71683 20 8.71683C19.2002 8.71683 19.1375 8.67347 18.0907 7.94863C18.0006 7.88628 17.9055 7.82042 17.8045 7.75097C14.9663 5.79816 11.9983 5.53784 9.22094 6.998C6.75734 8.29339 4.4632 10.8981 2.40227 14.74C1.61969 16.1989 1.02945 17.5529 0.672266 18.432C0.340937 19.2472 0.173125 19.7059 0.0878906 19.9837C0.0340625 20.1234 0 20.2889 0 20.4561C0 20.5668 0.0214844 20.7253 0.0605469 20.849C0.181875 21.2604 1.185 24.428 4.1368 27.59C5.86742 29.4439 7.92461 30.9189 10.2511 31.9741C13.1187 33.2748 16.3988 33.9343 20.0001 33.9343C23.6028 33.9343 26.8839 33.2743 29.7523 31.9726C32.0791 30.9167 34.1364 29.4408 35.867 27.5859C38.8159 24.4252 39.8164 21.2667 39.9394 20.8494C39.9743 20.7392 40.0001 20.5913 40.0001 20.4561C40 20.2964 39.9605 20.1373 39.932 20.0503ZM20 31.3256C9.32789 31.3256 4.84305 24.9774 3.27836 21.8385C3.8925 21.8398 4.64148 21.8359 5.51547 21.8264C7.45109 21.8055 9.39094 21.7643 9.57906 21.7603C11.5927 21.7628 13.6812 22.3301 15.787 23.4463C17.073 24.1278 18.5271 24.4879 19.9933 24.4879C19.9978 24.4879 20.0023 24.4879 20.0069 24.4879C21.4729 24.4879 22.9273 24.1278 24.2131 23.4463C26.319 22.3301 28.4075 21.7628 30.4211 21.7603C30.6091 21.7643 32.549 21.8055 34.4846 21.8264C35.3588 21.8357 36.1087 21.8397 36.7216 21.8385C35.1567 24.9774 30.6716 31.3256 20 31.3256ZM12.7565 19.5239C14.6533 18.1449 16.2845 17.3853 17.3505 17.3853C18.178 17.3853 18.7054 17.796 18.8956 17.9744C18.9336 18.0318 18.9766 18.0868 19.0245 18.1388C19.46 18.6116 20.1753 18.6964 20.7095 18.3386C20.8228 18.2627 20.9227 18.1706 21.0064 18.0662C21.1087 17.9554 21.6819 17.3854 22.6495 17.3854C23.7155 17.3854 25.3466 18.145 27.2434 19.524C25.8302 19.8503 24.4086 20.3902 22.9912 21.1415C22.0803 21.6243 21.0485 21.8794 20.0068 21.8794C20.005 21.8794 20.003 21.8794 20.0011 21.8794C19.9984 21.8793 19.9957 21.8794 19.9931 21.8794C18.9515 21.8794 17.9195 21.6243 17.0087 21.1415C15.5914 20.3902 14.1698 19.8503 12.7565 19.5239ZM34.5439 19.2186C34.4148 19.1758 34.2771 19.1518 34.1337 19.1518C32.1914 19.1518 30.3439 18.5542 28.7909 17.4236C26.3784 15.6673 24.3121 14.7768 22.6495 14.7768C21.5008 14.7768 20.6124 15.1514 19.9945 15.5471C19.3805 15.1542 18.4931 14.7768 17.3505 14.7768C15.688 14.7768 13.6216 15.6673 11.2091 17.4236C9.65609 18.5541 7.80875 19.1516 5.86633 19.1516C5.72289 19.1516 5.58508 19.1757 5.45602 19.2185C4.59273 19.2274 3.80539 19.2315 3.16492 19.2295C3.58945 18.2005 4.2275 16.7887 5.06133 15.32C7.02383 11.8634 9.17781 9.65589 11.2907 8.9362C12.9264 8.37902 14.5734 8.69417 16.3259 9.90003C16.4246 9.96792 16.5177 10.0324 16.6057 10.0933C17.7905 10.9136 18.3852 11.3254 20.0001 11.3254C21.6149 11.3254 22.2096 10.9136 23.3945 10.0932C23.4827 10.0323 23.5755 9.96792 23.6743 9.90003C25.4266 8.69433 27.0736 8.37878 28.7095 8.9362C30.8223 9.65589 32.9763 11.8634 34.9388 15.3201C35.7726 16.7888 36.4107 18.2007 36.8352 19.2296C36.1945 19.2316 35.4073 19.2275 34.5439 19.2186Z" fill="#51BCAB"/>
</g>
<defs>
<clipPath id="clip0_2437_10068">
<rect width="40" height="40" fill="white"/>
</clipPath>
</defs>
</svg>
