<svg width="50" height="50" viewBox="0 0 50 50" fill="none" xmlns="http://www.w3.org/2000/svg">
<path d="M35.4372 26.5207C36.6683 26.5207 37.6663 25.5227 37.6663 24.2916C37.6663 23.0604 36.6683 22.0625 35.4372 22.0625C34.2061 22.0625 33.208 23.0604 33.208 24.2916C33.208 25.5227 34.2061 26.5207 35.4372 26.5207Z" stroke="#171717" stroke-width="2.5" stroke-linecap="round" stroke-linejoin="round"/>
<path d="M41.667 12.5013V16.2304C41.1462 16.1679 40.542 16.1263 39.8961 16.1263H30.9795C26.5211 16.1263 25.042 17.6055 25.042 22.0639V32.7097H12.5003C5.83366 32.7097 4.16699 31.043 4.16699 24.3763V12.5013C4.16699 5.83464 5.83366 4.16797 12.5003 4.16797H33.3337C40.0003 4.16797 41.667 5.83464 41.667 12.5013Z" stroke="#171717" stroke-width="2.5" stroke-linecap="round" stroke-linejoin="round"/>
<path d="M18.75 32.707V41.6653" stroke="#171717" stroke-width="2.5" stroke-linecap="round" stroke-linejoin="round"/>
<path d="M4.16699 24.793H25.0003" stroke="#171717" stroke-width="2.5" stroke-linecap="round" stroke-linejoin="round"/>
<path d="M12.3955 41.668H24.9996" stroke="#171717" stroke-width="2.5" stroke-linecap="round" stroke-linejoin="round"/>
<path d="M35.4382 26.5207C36.6693 26.5207 37.6673 25.5227 37.6673 24.2916C37.6673 23.0604 36.6693 22.0625 35.4382 22.0625C34.207 22.0625 33.209 23.0604 33.209 24.2916C33.209 25.5227 34.207 26.5207 35.4382 26.5207Z" stroke="#171717" stroke-width="2.5" stroke-miterlimit="10" stroke-linecap="round" stroke-linejoin="round"/>
<path d="M41.667 16.2291C41.1462 16.1666 40.542 16.125 39.8962 16.125H30.9795C26.5212 16.125 25.042 17.6042 25.042 22.0626V39.8959C25.042 44.3542 26.5212 45.8334 30.9795 45.8334H39.8962C44.3545 45.8334 45.8337 44.3542 45.8337 39.8959V22.0626C45.8337 18.2501 44.7503 16.625 41.667 16.2291ZM35.4379 22.0626C36.667 22.0626 37.667 23.0625 37.667 24.2916C37.667 25.5208 36.667 26.5208 35.4379 26.5208C34.2087 26.5208 33.2087 25.5208 33.2087 24.2916C33.2087 23.0625 34.2087 22.0626 35.4379 22.0626ZM35.4379 39.8959C32.9795 39.8959 30.9795 37.8959 30.9795 35.4375C30.9795 34.4167 31.3337 33.4584 31.917 32.7084C32.7295 31.6667 34.0004 30.9792 35.4379 30.9792C36.5629 30.9792 37.5837 31.3959 38.3545 32.0626C39.292 32.8959 39.8962 34.1042 39.8962 35.4375C39.8962 37.8959 37.8962 39.8959 35.4379 39.8959Z" stroke="#171717" stroke-width="2.5" stroke-miterlimit="10" stroke-linecap="round" stroke-linejoin="round"/>
<path d="M39.8962 35.4388C39.8962 37.8972 37.8962 39.8972 35.4379 39.8972C32.9795 39.8972 30.9795 37.8972 30.9795 35.4388C30.9795 34.418 31.3337 33.4597 31.917 32.7097C32.7295 31.668 34.0004 30.9805 35.4379 30.9805C36.5629 30.9805 37.5837 31.3972 38.3545 32.0638C39.292 32.8972 39.8962 34.1055 39.8962 35.4388Z" stroke="#171717" stroke-width="2.5" stroke-miterlimit="10" stroke-linecap="round" stroke-linejoin="round"/>
<path d="M35.4382 26.5207C36.6693 26.5207 37.6673 25.5227 37.6673 24.2916C37.6673 23.0604 36.6693 22.0625 35.4382 22.0625C34.207 22.0625 33.209 23.0604 33.209 24.2916C33.209 25.5227 34.207 26.5207 35.4382 26.5207Z" stroke="#171717" stroke-width="2.5" stroke-miterlimit="10" stroke-linecap="round" stroke-linejoin="round"/>
</svg>
