<svg width="25" height="24" viewBox="0 0 25 24" fill="none" xmlns="http://www.w3.org/2000/svg">
<path d="M12.793 15.9203H13.443C14.093 15.9203 14.633 15.3403 14.633 14.6403C14.633 13.7703 14.323 13.6003 13.813 13.4203L12.803 13.0703V15.9203H12.793Z" fill="black"/>
<path d="M12.013 1.89845C6.49304 1.91845 2.02304 6.40845 2.04304 11.9285C2.06304 17.4485 6.55304 21.9185 12.073 21.8985C17.593 21.8785 22.063 17.3885 22.043 11.8685C22.023 6.34845 17.533 1.88845 12.013 1.89845ZM14.303 11.9985C15.083 12.2685 16.133 12.8485 16.133 14.6385C16.133 16.1785 14.923 17.4185 13.443 17.4185H12.793V17.9985C12.793 18.4085 12.453 18.7485 12.043 18.7485C11.633 18.7485 11.293 18.4085 11.293 17.9985V17.4185H10.933C9.29304 17.4185 7.96304 16.0385 7.96304 14.3385C7.96304 13.9285 8.30304 13.5885 8.71304 13.5885C9.12304 13.5885 9.46304 13.9285 9.46304 14.3385C9.46304 15.2085 10.123 15.9185 10.933 15.9185H11.293V12.5385L9.78304 11.9985C9.00304 11.7285 7.95304 11.1485 7.95304 9.35845C7.95304 7.81845 9.16304 6.57845 10.643 6.57845H11.293V5.99845C11.293 5.58845 11.633 5.24845 12.043 5.24845C12.453 5.24845 12.793 5.58845 12.793 5.99845V6.57845H13.153C14.793 6.57845 16.123 7.95845 16.123 9.65845C16.123 10.0685 15.783 10.4085 15.373 10.4085C14.963 10.4085 14.623 10.0685 14.623 9.65845C14.623 8.78845 13.963 8.07845 13.153 8.07845H12.793V11.4585L14.303 11.9985Z" fill="black"/>
<path d="M9.46289 9.36812C9.46289 10.2381 9.77289 10.4081 10.2829 10.5881L11.2929 10.9381V8.07812H10.6429C9.99289 8.07812 9.46289 8.65812 9.46289 9.36812Z" fill="black"/>
</svg>
