<svg width="50" height="50" viewBox="0 0 50 50" fill="none" xmlns="http://www.w3.org/2000/svg">
<path d="M18.7503 45.8346H31.2503C41.667 45.8346 45.8337 41.668 45.8337 31.2513V18.7513C45.8337 8.33464 41.667 4.16797 31.2503 4.16797H18.7503C8.33366 4.16797 4.16699 8.33464 4.16699 18.7513V31.2513C4.16699 41.668 8.33366 45.8346 18.7503 45.8346Z" stroke="#171717" stroke-width="2.5" stroke-linecap="round" stroke-linejoin="round"/>
<path d="M32.292 20.3125C34.0179 20.3125 35.417 18.9134 35.417 17.1875C35.417 15.4616 34.0179 14.0625 32.292 14.0625C30.5661 14.0625 29.167 15.4616 29.167 17.1875C29.167 18.9134 30.5661 20.3125 32.292 20.3125Z" stroke="#171717" stroke-width="2.5" stroke-miterlimit="10" stroke-linecap="round" stroke-linejoin="round"/>
<path d="M17.708 20.3125C19.4339 20.3125 20.833 18.9134 20.833 17.1875C20.833 15.4616 19.4339 14.0625 17.708 14.0625C15.9821 14.0625 14.583 15.4616 14.583 17.1875C14.583 18.9134 15.9821 20.3125 17.708 20.3125Z" stroke="#171717" stroke-width="2.5" stroke-miterlimit="10" stroke-linecap="round" stroke-linejoin="round"/>
<path d="M17.5 27.707H32.5C33.5417 27.707 34.375 28.5404 34.375 29.582C34.375 34.7695 30.1875 38.957 25 38.957C19.8125 38.957 15.625 34.7695 15.625 29.582C15.625 28.5404 16.4583 27.707 17.5 27.707Z" stroke="#171717" stroke-width="2.5" stroke-miterlimit="10" stroke-linecap="round" stroke-linejoin="round"/>
</svg>
