<svg width="50" height="50" viewBox="0 0 50 50" fill="none" xmlns="http://www.w3.org/2000/svg">
<path d="M22.3961 46.8775H27.6461C29.6461 46.8775 30.9378 45.4608 30.5628 43.7316L29.7086 39.9609H20.3336L19.4794 43.7316C19.1044 45.3566 20.5211 46.8775 22.3961 46.8775Z" stroke="#171717" stroke-width="2.5" stroke-linecap="round" stroke-linejoin="round"/>
<path d="M29.7088 39.9389L33.313 36.7304C35.3338 34.9388 35.4171 33.6887 33.813 31.6678L27.4588 23.6055C26.1255 21.918 23.938 21.918 22.6046 23.6055L16.2505 31.6678C14.6463 33.6887 14.6463 35.0013 16.7505 36.7304L20.3546 39.9389" stroke="#171717" stroke-width="2.5" stroke-linecap="round" stroke-linejoin="round"/>
<path d="M25.0215 23.168V28.4389" stroke="#171717" stroke-width="2.5" stroke-linecap="round" stroke-linejoin="round"/>
<path d="M23.2295 10.8112L21.6045 9.18616C20.6253 8.20699 20.6253 6.62376 21.6045 5.64459L23.2295 4.01953C24.2087 3.04036 25.792 3.04036 26.7712 4.01953L28.3961 5.64459C29.3753 6.62376 29.3753 8.20699 28.3961 9.18616L26.7712 10.8112C25.792 11.7904 24.2087 11.7904 23.2295 10.8112Z" stroke="#171717" stroke-width="2.5" stroke-linecap="round" stroke-linejoin="round"/>
<path d="M40.5205 20.4375H42.8122C44.1872 20.4375 45.3122 21.5625 45.3122 22.9375V25.2291C45.3122 26.6041 44.1872 27.7293 42.8122 27.7293H40.5205C39.1455 27.7293 38.0205 26.6041 38.0205 25.2291V22.9375C38.0205 21.5625 39.1455 20.4375 40.5205 20.4375Z" stroke="#171717" stroke-width="2.5" stroke-linecap="round" stroke-linejoin="round"/>
<path d="M9.47917 20.4375H7.18749C5.81249 20.4375 4.6875 21.5625 4.6875 22.9375V25.2291C4.6875 26.6041 5.81249 27.7293 7.18749 27.7293H9.47917C10.8542 27.7293 11.9792 26.6041 11.9792 25.2291V22.9375C11.9792 21.5625 10.8542 20.4375 9.47917 20.4375Z" stroke="#171717" stroke-width="2.5" stroke-linecap="round" stroke-linejoin="round"/>
<path d="M38.6247 21.0416L27.583 10" stroke="#171717" stroke-width="2.5" stroke-linecap="round" stroke-linejoin="round"/>
<path d="M11.375 21.0416L22.4167 10" stroke="#171717" stroke-width="2.5" stroke-linecap="round" stroke-linejoin="round"/>
</svg>
