<svg width="50" height="50" viewBox="0 0 50 50" fill="none" xmlns="http://www.w3.org/2000/svg">
<path d="M18.7503 45.8307H31.2503C41.667 45.8307 45.8337 41.6641 45.8337 31.2474V18.7474C45.8337 8.33073 41.667 4.16406 31.2503 4.16406H18.7503C8.33366 4.16406 4.16699 8.33073 4.16699 18.7474V31.2474C4.16699 41.6641 8.33366 45.8307 18.7503 45.8307Z" stroke="#171717" stroke-width="2.5" stroke-linecap="round" stroke-linejoin="round"/>
<path d="M36.4577 24.9974C36.4577 31.3307 31.3327 36.4557 24.9993 36.4557C18.666 36.4557 14.8118 30.0807 14.8118 30.0807M14.8118 30.0807H19.9785M14.8118 30.0807V35.8099M13.541 24.9974C13.541 18.6641 18.6243 13.5391 24.9993 13.5391C32.6452 13.5391 36.4577 19.9141 36.4577 19.9141M36.4577 19.9141V14.1849M36.4577 19.9141H31.3743" stroke="#171717" stroke-width="2.5" stroke-linecap="round" stroke-linejoin="round"/>
</svg>
