<svg width="50" height="50" viewBox="0 0 50 50" fill="none" xmlns="http://www.w3.org/2000/svg">
<path d="M25 31.25C28.4518 31.25 31.25 28.4518 31.25 25C31.25 21.5482 28.4518 18.75 25 18.75C21.5482 18.75 18.75 21.5482 18.75 25C18.75 28.4518 21.5482 31.25 25 31.25Z" stroke="#171717" stroke-width="2.5" stroke-miterlimit="10" stroke-linecap="round" stroke-linejoin="round"/>
<path d="M4.16699 26.8336V23.167C4.16699 21.0003 5.93783 19.2086 8.12533 19.2086C11.8962 19.2086 13.4378 16.542 11.542 13.2711C10.4587 11.3961 11.1045 8.95865 13.0003 7.87532L16.6045 5.81282C18.2503 4.83365 20.3753 5.41698 21.3545 7.06282L21.5837 7.45865C23.4587 10.7295 26.542 10.7295 28.4378 7.45865L28.667 7.06282C29.6462 5.41698 31.7712 4.83365 33.417 5.81282L37.0212 7.87532C38.917 8.95865 39.5628 11.3961 38.4795 13.2711C36.5837 16.542 38.1253 19.2086 41.8962 19.2086C44.0628 19.2086 45.8545 20.9795 45.8545 23.167V26.8336C45.8545 29.0003 44.0837 30.792 41.8962 30.792C38.1253 30.792 36.5837 33.4586 38.4795 36.7295C39.5628 38.6253 38.917 41.042 37.0212 42.1253L33.417 44.1878C31.7712 45.167 29.6462 44.5836 28.667 42.9378L28.4378 42.542C26.5628 39.2711 23.4795 39.2711 21.5837 42.542L21.3545 42.9378C20.3753 44.5836 18.2503 45.167 16.6045 44.1878L13.0003 42.1253C11.1045 41.042 10.4587 38.6045 11.542 36.7295C13.4378 33.4586 11.8962 30.792 8.12533 30.792C5.93783 30.792 4.16699 29.0003 4.16699 26.8336Z" stroke="#171717" stroke-width="2.5" stroke-miterlimit="10" stroke-linecap="round" stroke-linejoin="round"/>
</svg>
