<svg width="36" height="36" viewBox="0 0 36 36" fill="none" xmlns="http://www.w3.org/2000/svg">
<rect width="36" height="36" rx="10" fill="#005CF0"/>
<g clip-path="url(#clip0_0_1)">
<mask id="mask0_0_1" style="mask-type:luminance" maskUnits="userSpaceOnUse" x="8" y="8" width="20" height="20">
<path d="M8 8H28V28H8V8Z" fill="white"/>
</mask>
<g mask="url(#mask0_0_1)">
<path d="M22.6954 17.6367L18.2002 22.132L20.7936 24.7254C22.0349 25.9667 24.0475 25.9667 25.2889 24.7254C26.5302 23.4841 26.5302 21.4715 25.2889 20.2301L22.6954 17.6367Z" stroke="white" stroke-width="1.55182" stroke-linecap="round"/>
<path d="M13.6748 17.3361L18.17 12.8408L15.5766 10.2474C14.3353 9.00607 12.3227 9.00607 11.0814 10.2474C9.84006 11.4887 9.84006 13.5013 11.0814 14.7427L13.6748 17.3361Z" stroke="white" stroke-width="1.55182" stroke-linecap="round"/>
<path d="M18.9925 20.853L17.3662 19.2266" stroke="white" stroke-width="1.55182" stroke-linecap="round"/>
<path d="M21.4134 18.431L19.7871 16.8047" stroke="white" stroke-width="1.55182" stroke-linecap="round"/>
<path d="M25.2881 24.7266L26.3254 25.7639" stroke="white" stroke-width="1.55182" stroke-linecap="round"/>
<path d="M11.0813 10.2483L10.0439 9.21094" stroke="white" stroke-width="1.55182" stroke-linecap="round"/>
<path d="M17.5078 22.8237L23.3862 16.9453" stroke="white" stroke-width="1.55182" stroke-linecap="round"/>
<path d="M18.8618 12.1484L12.9834 18.0269" stroke="white" stroke-width="1.55182" stroke-linecap="round"/>
</g>
</g>
<defs>
<clipPath id="clip0_0_1">
<rect width="20" height="20" fill="white" transform="translate(8 8)"/>
</clipPath>
</defs>
</svg>
